HIERARCHY
ROOT Hips
{
  OFFSET 60.9719 91.1665 -12.0264
  CHANNELS 6 Xposition Yposition Zposition Zrotation Xrotation Yrotation
  JOINT RightUpLeg
  {
    OFFSET -8.9458 -8.66707 0.101652
    CHANNELS 3 Zrotation Xrotation Yrotation
    JOINT RightLeg
    {
      OFFSET 0 -44.4227 1.3727
      CHANNELS 3 Zrotation Xrotation Yrotation
      JOINT RightFoot
      {
        OFFSET 0.253549 -42.0924 -1.46059
        CHANNELS 3 Zrotation Xrotation Yrotation
        JOINT RightToes
        {
          OFFSET 0.04 -4.41509 8.4991
          CHANNELS 3 Zrotation Xrotation Yrotation
          End Site
          {
            OFFSET -0.08 -0.137448 9.77979
          }
        }
      }
    }
  }
  JOINT Spine
  {
    OFFSET 0 11.8905 0
    CHANNELS 3 Zrotation Xrotation Yrotation
    JOINT Spine1
    {
      OFFSET 0 25.6574 0.127663
      CHANNELS 3 Zrotation Xrotation Yrotation
      JOINT HEad
      {
        OFFSET 0 8.73416 0.011341
        CHANNELS 3 Zrotation Xrotation Yrotation
        End Site
        {
          OFFSET -0.29 12.7742 2.51395
        }
      }
      JOINT LeftShoulder1
      {
        OFFSET 8.99 -0.362252 -0.22
        CHANNELS 3 Zrotation Xrotation Yrotation
        JOINT LeftArm
        {
          OFFSET 10.2827 -0.00338 0.322123
          CHANNELS 3 Zrotation Xrotation Yrotation
          JOINT LeftForeArm
          {
            OFFSET 32.7669 0.099144 -1.42434
            CHANNELS 3 Zrotation Xrotation Yrotation
            JOINT LeftHand
            {
              OFFSET 27.5643 0.085362 1.02216
              CHANNELS 3 Zrotation Xrotation Yrotation
              End Site
              {
                OFFSET 16.7443 -0.6 1.50291
              }
            }
          }
        }
      }
      JOINT RightShoulder
      {
        OFFSET -8.99 -0.362252 -0.22
        CHANNELS 3 Zrotation Xrotation Yrotation
        JOINT RightArm
        {
          OFFSET -10.2827 -0.00338 0.322123
          CHANNELS 3 Zrotation Xrotation Yrotation
          JOINT RightForeArm
          {
            OFFSET -32.8971 0.099144 -1.42434
            CHANNELS 3 Zrotation Xrotation Yrotation
            JOINT RightHand
            {
              OFFSET -27.4921 0.085362 1.02216
              CHANNELS 3 Zrotation Xrotation Yrotation
              End Site
              {
                OFFSET -16.6312 -0.6 1.50291
              }
            }
          }
        }
      }
    }
  }
  JOINT LeftUpLeg
  {
    OFFSET 8.9458 -8.66707 0.101652
    CHANNELS 3 Zrotation Xrotation Yrotation
    JOINT LeftLeg
    {
      OFFSET 0 -44.4227 1.3727
      CHANNELS 3 Zrotation Xrotation Yrotation
      JOINT LeftFoot
      {
        OFFSET -0.253549 -42.0924 -1.46059
        CHANNELS 3 Zrotation Xrotation Yrotation
        JOINT LeftToes
        {
          OFFSET -0.04 -4.41509 8.4991
          CHANNELS 3 Zrotation Xrotation Yrotation
          End Site
          {
            OFFSET 0.08 -0.047448 9.77979
          }
        }
      }
    }
  }
}
MOTION
Frames:	19
Frame Time:	0.0166667
68.984 94.3377 8.24195 1.41848 3.36351 -148.495 -26.8218 -39.8455 3.80474 18.0359 58.7922 -8.61111 17.8991 14.545 -3.5405 0.0462048 0.000533403 0.662642 3.88539 7.49069 -2.00462 -1.42514 14.1479 -2.97711 11.6589 3.05512 -15.6446 -1.59028e-015 3.18055e-015 3.18055e-015 -85.9682 -10.16 -43.9838 -43.3528 62.3944 -82.6725 7.21815 19.4659 -2.26649 23.4921 -2.87357 -13.6286 79.7739 -44.9704 46.7637 -18.451 55.1157 142.447 -13.7441 20.4382 -10.0488 26.3091 -9.14483 -15.3983 -14.7943 40.7216 8.9511 -11.5494 29.8303 3.81568 -1.36813e-009 1.55994e-007 -4.83559e-009 
68.9288 94.5181 7.04186 1.85717 3.89012 -148.253 -28.1337 -38.4667 1.82351 19.4949 55.9846 -10.0633 17.3679 9.90672 -2.60748 0.0462048 0.000533403 0.662642 3.74136 7.27484 -1.80039 -1.04756 13.7903 -2.6435 12.3777 4.07234 -16.0448 -1.59028e-015 -3.18055e-015 -6.36111e-015 -85.7451 -9.13992 -43.0011 -42.9541 62.1757 -82.8088 7.21815 19.4659 -2.26649 21.8177 -2.4855 -12.7798 84.494 -44.6255 54.0246 -20.657 53.4968 139.266 -12.1101 20.5998 -12.5995 27.324 -11.3789 -15.4566 -14.729 42.8899 7.48255 -16.3951 35.1416 6.30135 -1.36813e-009 1.55994e-007 -4.83559e-009 
68.9586 94.4457 5.88538 1.9859 4.48676 -147.699 -29.4633 -36.3647 0.0932481 20.459 52.6451 -11.0365 17.4324 5.79586 -1.82418 0.0462048 0.000533403 0.662642 3.36684 7.1635 -1.53617 -0.843098 13.7037 -2.18459 13.5101 4.51951 -16.9983 -1.59028e-015 7.95139e-015 6.36111e-015 -85.5464 -7.75777 -42.5262 -42.5742 61.9426 -82.8404 7.21815 19.4659 -2.26649 19.7749 -1.97654 -11.4131 89.5897 -44.3351 62.3026 -22.1989 53.1974 132.087 -11.5422 20.6954 -14.1081 28.0886 -14.2385 -14.936 -14.1283 45.65 5.02636 -22.6699 39.6775 9.72036 -1.36812e-009 1.55994e-007 -4.83559e-009 
69.0298 94.0957 4.74486 1.78294 5.1028 -147.103 -30.5089 -34.0027 -1.2262 20.6984 49.3068 -11.2031 17.8151 2.8304 -1.22778 0.0462048 0.000533403 0.662642 2.85331 7.1676 -1.16033 -0.927642 13.8663 -1.48141 14.957 4.34328 -18.4071 7.95139e-016 3.18055e-015 -6.36111e-015 -85.3309 -6.1718 -42.6171 -42.2424 61.7269 -82.7895 7.21815 19.4659 -2.26649 17.4046 -1.39037 -9.51299 92.7247 -43.4144 69.9412 -21.8569 53.0197 119.657 -11.9285 20.7406 -14.2605 28.3813 -17.3978 -13.9802 -12.9287 48.7039 1.86794 -29.4319 42.6561 13.4851 -1.36813e-009 1.55994e-007 -4.83559e-009 
69.0863 93.5044 3.60054 1.31762 5.67751 -146.807 -31.0197 -31.9948 -2.14392 20.078 46.6118 -10.3658 18.0868 1.40995 -0.880071 0.0462048 0.000533403 0.662642 2.38087 7.27099 -0.629284 -1.3567 14.1928 -0.427913 16.5303 3.62348 -20.0946 -7.95139e-016 0 -0 -85.0525 -4.60349 -43.1833 -41.9799 61.5675 -82.7066 7.21815 19.4659 -2.26649 14.8718 -0.811559 -7.22325 73.5037 -33.3596 64.6655 -15.1561 33.9415 93.0868 -11.0739 20.588 -13.29 28.1087 -20.411 -12.8847 -11.3009 51.5688 -1.44273 -35.3895 43.9788 16.699 -1.36813e-009 1.55994e-007 -4.83559e-009 
69.0867 92.7632 2.43252 0.725219 6.15606 -147.146 -30.7967 -30.8795 -2.73308 18.4958 45.0337 -8.45584 17.9171 1.76834 -0.847172 0.0462048 0.000533403 0.662642 2.09115 7.42833 0.0613772 -2.10613 14.5523 0.998259 17.9797 2.56403 -21.7997 -7.95139e-016 -1.59028e-015 6.36111e-015 -84.7028 -3.35333 -44.0253 -41.8183 61.5116 -82.6491 7.21815 19.4659 -2.26649 12.5046 -0.335559 -4.88095 55.8478 -24.8315 61.3809 -12.9928 14.3335 69.8839 -11.5577 20.1881 -8.39733 27.3477 -22.7899 -11.9647 -9.64976 53.784 -4.18352 -39.5309 44.0687 18.7067 -1.36812e-009 1.55994e-007 -4.83559e-009 
69.0194 91.9906 1.21158 0.156987 6.49483 -148.363 -29.6917 -30.878 -2.97301 15.8849 44.5462 -5.61556 17.2499 4.12804 -1.15934 0.0462048 0.000533403 0.662642 1.98018 7.58188 0.860906 -3.07366 14.8103 2.68883 19.0374 1.45172 -23.1855 -7.95139e-016 -3.18055e-015 3.18055e-015 -84.33 -2.78743 -44.9054 -41.8111 61.6097 -82.6561 7.21815 19.4659 -2.26649 10.7137 -0.0180942 -2.93585 43.5906 -19.6595 59.567 -12.3792 0.786681 52.2184 -13.9144 19.4021 -0.434893 26.2835 -24.1383 -11.4434 -8.43069 55.1207 -5.66674 -41.4275 43.5171 19.3583 -1.36813e-009 1.55994e-007 -4.83559e-009 
68.8829 91.2923 -0.0980236 -0.264986 6.66392 -150.56 -27.653 -31.7827 -2.67711 12.3468 44.5509 -2.30292 16.3435 8.64382 -1.78458 0.0462048 0.000533403 0.662642 1.90465 7.68203 1.66857 -4.09483 14.876 4.40967 19.4666 0.589933 -23.867 -2.38542e-015 -3.18055e-015 6.36111e-015 -84.029 -3.28623 -45.6275 -42.0307 61.8976 -82.7224 7.21815 19.4659 -2.26649 9.80517 0.143112 -1.76454 37.4715 -17.1695 58.8909 -11.1198 -6.25099 41.9758 -17.0696 18.1526 7.95404 25.0884 -24.2602 -11.4294 -7.92957 55.653 -5.42111 -41.0471 42.818 18.8217 -1.36813e-009 1.55994e-007 -4.83559e-009 
68.6479 90.7378 -1.52387 -0.459582 6.65505 -153.699 -24.7902 -33.082 -1.60105 8.29682 44.2541 0.782664 15.6033 15.0187 -2.63439 0.0462048 0.000533403 0.662642 1.71322 7.69598 2.34805 -4.96448 14.7269 5.8489 19.094 0.220864 -23.4575 3.18055e-015 3.18055e-015 -9.54166e-015 -83.9177 -5.16667 -46.1074 -42.5514 62.3704 -82.7693 7.21815 19.4659 -2.26649 9.85002 0.174043 -1.52692 36.438 -15.6993 59.5123 -9.18508 -9.23681 39.5513 -19.9488 16.7854 14.4205 23.8412 -23.1846 -11.9208 -8.21183 55.6778 -3.2066 -38.4304 42.23 17.2747 -1.36812e-009 1.55994e-007 -4.83559e-009 
68.2433 90.366 -3.06429 -0.364577 6.48158 -157.63 -21.384 -34.2774 0.321327 4.38227 43.2398 3.09956 15.2641 22.1731 -3.58248 0.0462048 0.000533403 0.662642 1.41252 7.61259 2.74511 -5.46469 14.4024 6.67985 17.8206 0.456356 -21.6316 7.95139e-016 0 -6.36111e-015 -84.1227 -8.6055 -46.4139 -43.4333 62.958 -82.6164 7.21815 19.4659 -2.26649 10.7049 0.0902303 -2.15016 39.9853 -14.4939 61.2862 -6.4855 -8.13344 44.5319 -22.3383 15.7233 17.9608 22.5473 -21.1176 -12.7797 -9.21664 55.5189 1.05734 -33.5979 41.7186 14.7917 -1.36813e-009 1.55994e-007 -4.83559e-009 
67.5943 90.19 -4.67723 0.0701927 6.15121 -162.104 -17.7875 -35.1754 2.84193 1.11169 41.7062 4.72773 15.281 28.5401 -4.46971 0.0462048 0.000533403 0.662642 1.19385 7.4499 2.71781 -5.41691 13.9771 6.62565 15.6355 1.23539 -18.2016 1.59028e-015 -1.59028e-015 -0 -84.7771 -13.582 -46.7829 -44.6953 63.5061 -81.9756 7.21815 19.4659 -2.26649 12.0975 -0.0983021 -3.37618 48.4621 -14.0436 63.2543 -2.50497 -0.0169139 55.5544 -24.405 15.148 18.75 21.2157 -18.3858 -13.7237 -10.8313 55.3293 7.24983 -26.7906 40.9878 11.4929 -1.36813e-009 1.55994e-007 -4.83559e-009 
66.6867 90.1871 -6.29132 0.83519 5.63936 -166.781 -14.3034 -35.8817 5.49726 -1.39317 40.1462 6.28497 15.5449 32.8814 -5.15842 0.0462048 0.000533403 0.662642 1.2603 7.24846 2.1804 -4.75781 13.5259 5.53034 12.6597 2.33115 -13.2096 -7.95139e-016 1.59028e-015 -3.18055e-015 -86.0193 -19.8342 -47.626 -46.2503 63.7696 -80.5062 7.21815 19.4659 -2.26649 13.704 -0.359913 -4.82763 61.1486 -15.3036 63.883 1.78766 17.0054 69.3421 -26.2448 14.9781 17.823 19.9064 -15.3985 -14.4218 -12.8978 55.0513 14.8952 -18.7632 39.644 7.76467 -1.36813e-009 1.55994e-007 -4.83559e-009 
65.5883 90.3085 -7.82445 1.81928 4.91676 -171.257 -11.1735 -36.5609 7.79753 -3.28044 38.908 8.34722 16.0071 34.786 -5.59226 0.0462048 0.000533403 0.662642 1.64855 7.04737 1.14447 -3.58784 13.0979 3.42543 9.20266 3.43404 -7.00082 3.97569e-016 4.77083e-015 1.59028e-015 -87.9833 -26.821 -49.5357 -47.7481 63.4209 -77.9947 7.21815 19.4659 -2.26649 15.252 -0.638251 -6.14967 74.0862 -18.497 62.2836 4.27954 38.2444 83.2926 -27.4137 15.104 16.3098 18.722 -12.5815 -14.659 -15.2179 54.5456 23.1153 -10.696 37.4702 4.23971 -1.36813e-009 1.55994e-007 -4.83559e-009 
64.4058 90.5073 -9.20033 2.84617 4.00491 -175.157 -8.61661 -37.2746 9.37334 -4.74517 38.0689 11.0519 16.5852 34.536 -5.76494 0.0462048 0.000533403 0.662642 2.2259 6.86956 -0.273218 -2.14 12.7173 0.541566 5.74201 4.29716 -0.192531 5.96354e-016 0 -7.95139e-016 -90.7502 -33.6971 -53.217 -48.3185 62.0844 -74.6504 7.21815 19.4659 -2.26649 16.626 -0.892399 -7.19655 82.2812 -22.1097 58.8123 2.94137 55.4839 98.1906 -27.3869 15.5492 14.442 17.774 -10.2706 -14.428 -17.5932 53.7572 30.8189 -3.71447 34.601 1.4811 -1.36813e-009 1.55994e-007 -4.83559e-009 
63.2246 90.744 -10.3654 3.75696 2.98865 -178.218 -6.81149 -37.9868 10.0675 -5.91596 37.5444 14.1235 17.1394 32.7648 -5.69524 0.0462048 0.000533403 0.662642 2.81436 6.72949 -1.89734 -0.67341 12.4095 -2.77455 2.75379 4.84484 6.51364 -5.96354e-016 -3.18055e-015 3.97569e-016 -94.0978 -39.3753 -59.1403 -46.4887 59.4226 -71.2316 7.21815 19.4659 -2.26649 17.8448 -1.12383 -8.04499 77.826 -17.3 52.5 -3.06169 55.4639 113.915 -25.5585 16.626 10.8809 17.1494 -8.64332 -13.8753 -19.8812 52.7996 37.0251 1.49974 31.4506 -0.287195 -1.36813e-009 1.55994e-007 -4.83559e-009 
62.0821 90.9778 -11.3011 4.45948 1.97625 179.655 -5.83893 -38.6299 9.96248 -6.84206 37.215 17.1056 17.5606 30.2005 -5.44528 0.0462048 0.000533403 0.662642 3.30106 6.64358 -3.56041 0.635513 12.2121 -6.1831 0.494261 5.13832 12.5663 -1.19271e-015 0 -1.59028e-015 -94.8881 -42.0098 -65.7328 -39.2381 53.8847 -70.1131 7.21815 19.4659 -2.26649 18.9239 -1.34558 -8.79989 72.756 -11.4108 48.0244 -8.50411 51.751 126.711 -23.3311 17.754 6.58602 16.8797 -7.72704 -13.1791 -22.0115 51.9192 41.1141 4.75618 28.5036 -1.16692 -1.36813e-009 1.55994e-007 -4.83559e-009 
60.9719 91.1665 -12.0264 4.92129 1.05288 178.384 -5.64933 -39.1558 9.33194 -7.52894 36.9951 19.5958 17.8132 27.4843 -5.10741 0.0462048 0.000533403 0.662642 3.66625 6.62637 -5.13381 1.72902 12.1555 -9.41553 -1.0797 5.24366 17.6676 8.82781e-032 -3.18055e-015 1.59028e-015 -81.9607 -38.4643 -66.5548 -25.4391 38.2395 -71.8183 7.21815 19.4659 -2.26649 19.7933 -1.54297 -9.44249 68.9075 -6.14173 45.7819 -12.1832 46.9333 135.816 -20.8406 18.7778 1.92343 16.9127 -7.44269 -12.4616 -23.9454 51.3724 42.9105 6.24499 26.1373 -1.41783 -1.36813e-009 1.55994e-007 -4.83559e-009 
59.8634 91.2803 -12.5918 5.13559 0.259933 177.757 -6.08851 -39.5536 8.53679 -7.98108 36.8509 21.3868 17.9059 25.0417 -4.76112 0.0462048 0.000533403 0.662642 3.94621 6.67936 -6.51931 2.6279 12.2382 -12.2654 -2.21273 5.14323 21.7194 0 3.18055e-015 -0 -64.8053 -33.9387 -65.9587 -15.537 19.7128 -65.0808 7.21815 19.4659 -2.26649 20.3309 -1.67251 -9.84959 66.6769 -2.19439 45.3424 -14.3271 42.3769 141.838 -18.161 19.5917 -2.71063 17.1133 -7.64138 -11.7767 -25.6379 51.2974 42.6621 6.42334 24.5191 -1.31039 -1.36813e-009 1.55994e-007 -4.83559e-009 
58.724 91.3148 -13.0672 5.09553 -0.3992 177.496 -6.96562 -39.8394 7.90536 -8.2239 36.7756 22.4805 17.853 23.0469 -4.44694 0.0462048 0.000533403 0.662642 4.17884 6.78517 -7.63528 3.36859 12.4226 -14.5638 -3.18555 4.75424 24.7209 -1.59028e-015 -3.18055e-015 3.18055e-015 -49.2997 -30.6208 -65.3154 -8.00736 5.03248 -52.7068 7.21815 19.4659 -2.26649 20.4336 -1.68928 -9.89006 66.1201 0.217387 46.1407 -15.4723 38.9964 145.62 -15.5251 20.1339 -6.85796 17.3105 -8.13092 -11.1509 -27.0509 51.6549 40.989 5.88912 23.5869 -1.057 -1.36813e-009 1.55994e-007 -4.83559e-009 
